#!OML:ASF F:\VICON\USERDATA\INSTALL\rory3\rory3.ASF
:FULLY-SPECIFIED
:DEGREES
258
root 4.68603 17.353 2.56884 16.6057 -22.0529 -5.0447
lowerback -2.89357 3.5216 3.03385
upperback -6.27539 4.70671 0.414826
thorax -4.66529 2.21144 -1.30951
lowerneck -11.378 1.86707 0.282397
upperneck 38.8246 1.81077 1.89401
head 15.5515 0.990657 1.03127
rclavicle 4.06996e-014 1.63003e-014
rhumerus 30.793 -5.30925 -28.9577
rradius 108.985
rwrist -49.8653
rhand -8.28691 -45.4496
rfingers 7.12502
rthumb 17.6328 -74.6701
lclavicle 4.06996e-014 1.63003e-014
lhumerus 43.5394 21.4218 12.2207
lradius 65.4526
lwrist 58.5765
lhand -28.0929 -24.019
lfingers 7.12502
lthumb -1.47564 5.95562
rfemur -32.2847 -7.96345 1.92442
rtibia 38.5534
rfoot 20.4102 -23.4954
rtoes -0.876348
lfemur -29.6636 1.30092 -24.9899
ltibia 30.597
lfoot -14.7457 14.9053
ltoes 10.0937
259
root 4.69453 17.3445 2.56654 16.5544 -22.13 -4.99572
lowerback -2.90041 3.51239 2.99898
upperback -6.18716 4.69019 0.355232
thorax -4.56648 2.2061 -1.34751
lowerneck -11.3413 1.82244 0.266872
upperneck 38.7271 1.72724 1.94207
head 15.4935 0.959331 1.03839
rclavicle -1.45408e-014 9.44227e-015
rhumerus 30.8102 -5.09808 -29.1505
rradius 108.971
rwrist -49.8093
rhand -7.89288 -45.7826
rfingers 7.12502
rthumb 18.0119 -74.9685
lclavicle -1.45408e-014 9.44227e-015
lhumerus 43.5028 21.2203 12.2342
lradius 65.8829
lwrist 58.7346
lhand -29.0617 -26.6923
lfingers 7.12502
lthumb -2.41131 3.27379
rfemur -32.8321 -8.07084 2.03781
rtibia 38.9175
rfoot 20.1327 -22.92
rtoes -1.59162
lfemur -29.6785 1.24614 -25.085
ltibia 30.7457
lfoot -14.7893 14.9908
ltoes 10.2506
260
root 4.70139 17.336 2.56335 16.4064 -22.2753 -4.86639
lowerback -2.78828 3.4996 2.82495
upperback -6.1651 4.67613 0.32798
thorax -4.61767 2.20557 -1.28634
lowerneck -11.0088 1.77591 0.210584
upperneck 38.5815 1.68376 1.90999
head 15.3407 0.927832 1.01949
rclavicle -1.24163e-014 -1.63997e-014
rhumerus 30.7245 -4.73014 -29.2796
rradius 109.035
rwrist -49.6429
rhand -7.81306 -45.7497
rfingers 7.12502
rthumb 18.0887 -74.9286
lclavicle -1.24163e-014 -1.63997e-014
lhumerus 43.3844 20.8627 12.321
lradius 66.3338
lwrist 58.7272
lhand -29.462 -27.2705
lfingers 7.12502
lthumb -2.79788 2.69093
rfemur -33.3999 -8.04812 2.05842
rtibia 39.311
rfoot 19.6408 -22.2302
rtoes -2.18962
lfemur -29.6501 1.24706 -25.2607
ltibia 30.9019
lfoot -14.8621 15.1043
ltoes 10.1219
261
root 4.7074 17.3303 2.56154 16.3692 -22.2842 -4.93165
lowerback -2.67484 3.4507 2.82656
upperback -6.22663 4.61864 0.393372
thorax -4.75434 2.17517 -1.22973
lowerneck -10.5854 1.74231 -0.0014507
upperneck 38.4969 1.64439 2.02424
head 15.1933 0.894464 1.09107
rclavicle 5.86104e-015 -6.85807e-015
rhumerus 30.6643 -4.15542 -29.4337
rradius 109.083
rwrist -49.2334
rhand -7.99387 -45.4627
rfingers 7.12502
rthumb 17.9147 -74.6576
lclavicle 5.86104e-015 -6.85807e-015
lhumerus 43.228 20.3613 12.4343
lradius 66.5984
lwrist 58.6902
lhand -28.6877 -22.6943
lfingers 7.12502
lthumb -2.05008 7.27564
rfemur -33.9234 -8.01217 2.29599
rtibia 39.6828
rfoot 17.8105 -23.0867
rtoes 0.909418
lfemur -29.6759 1.2805 -25.217
ltibia 31.0273
lfoot -14.9069 15.1335
ltoes 9.86864
262
root 4.71312 17.3246 2.55871 16.3682 -22.2242 -4.99813
lowerback -2.6347 3.39951 2.87515
upperback -6.26092 4.5539 0.431259
thorax -4.81536 2.13998 -1.221
lowerneck -10.3396 1.69233 -0.197596
upperneck 38.4858 1.56775 2.15545
head 15.1261 0.849549 1.1654
rclavicle 4.56816e-014 -1.03368e-014
rhumerus 30.5903 -3.59793 -29.5796
rradius 109.074
rwrist -48.6829
rhand -7.97398 -45.124
rfingers 7.12502
rthumb 17.9339 -74.3171
lclavicle 4.56816e-014 -1.03368e-014
lhumerus 43.1724 19.9377 12.6236
lradius 66.7626
lwrist 58.5168
lhand -30.7644 -32.1008
lfingers 7.12502
lthumb -4.05566 -2.15969
rfemur -34.4227 -8.0597 2.58875
rtibia 39.9974
rfoot 17.0495 -23.8882
rtoes 3.7593
lfemur -29.7488 1.32846 -25.1573
ltibia 31.1215
lfoot -14.8822 15.0728
ltoes 9.99067
263
root 4.71758 17.3185 2.56034 16.213 -22.2173 -4.89905
lowerback -2.541 3.33705 2.75443
upperback -6.23087 4.47262 0.421116
thorax -4.84745 2.10447 -1.1691
lowerneck -10.2174 1.70701 -0.181193
upperneck 38.5487 1.61194 2.076
head 15.1289 0.858205 1.13485
rclavicle 4.45091e-015 1.6201e-014
rhumerus 30.4185 -3.20815 -29.6384
rradius 109.111
rwrist -48.398
rhand -7.44275 -44.9048
rfingers 7.12502
rthumb 18.445 -74.0503
lclavicle 4.45091e-015 1.6201e-014
lhumerus 43.1573 19.6203 12.8748
lradius 66.939
lwrist 58.3975
lhand -30.8067 -32.1169
lfingers 7.12502
lthumb -4.09651 -2.17655
rfemur -34.8481 -8.22146 2.75014
rtibia 40.2495
rfoot 17.6437 -23.3545
rtoes 2.7931
lfemur -29.6696 1.38946 -25.2779
ltibia 31.193
lfoot -14.9292 14.9636
ltoes 9.86451
264
root 4.72236 17.3151 2.56747 16.0206 -22.2163 -4.7269
lowerback -2.48623 3.2492 2.54823
upperback -6.15212 4.35387 0.400669
thorax -4.81225 2.0556 -1.07568
lowerneck -10.2856 1.73459 -0.143887
upperneck 38.677 1.6865 1.95276
head 15.2099 0.876405 1.09081
rclavicle -2.48574e-014 -1.88845e-014
rhumerus 30.3665 -2.96952 -29.804
rradius 109.152
rwrist -48.0845
rhand -6.37352 -44.8964
rfingers 7.12502
rthumb 19.4733 -73.9413
lclavicle -2.48574e-014 -1.88845e-014
lhumerus 43.0562 19.4343 12.981
lradius 67.1641
lwrist 58.7077
lhand -29.9409 -28.9014
lfingers 7.12502
lthumb -3.26041 1.05343
rfemur -35.2801 -8.50269 2.85958
rtibia 40.4511
rfoot 17.8363 -22.4978
rtoes 1.34958
lfemur -29.5246 1.4175 -25.4823
ltibia 31.2478
lfoot -15.037 14.8619
ltoes 9.76235
265
root 4.72736 17.3122 2.5701 15.9661 -22.2511 -4.69943
lowerback -2.56219 3.22243 2.5
upperback -6.02885 4.31229 0.384754
thorax -4.64268 2.04052 -1.0557
lowerneck -10.4579 1.66267 -0.254459
upperneck 38.6972 1.6004 1.96617
head 15.2605 0.824466 1.10571
rclavicle 4.09714e-014 7.65321e-015
rhumerus 30.3924 -2.51992 -29.8966
rradius 109.14
rwrist -48.3961
rhand -8.01488 -44.8988
rfingers 7.12502
rthumb 17.8945 -74.0956
lclavicle 4.09714e-014 7.65321e-015
lhumerus 43.0862 19.3473 13.1487
lradius 67.3864
lwrist 59.0202
lhand -30.3148 -31.8856
lfingers 7.12502
lthumb -3.62145 -1.93658
rfemur -35.8291 -8.66674 3.12207
rtibia 40.6096
rfoot 17.9527 -22.0032
rtoes 1.29403
lfemur -29.5133 1.48794 -25.5389
ltibia 31.3074
lfoot -15.1219 14.8129
ltoes 9.9025
266
root 4.73193 17.307 2.57249 15.9758 -22.3658 -4.80082
lowerback -2.71315 3.26935 2.62234
upperback -5.89279 4.3667 0.367803
thorax -4.40248 2.067 -1.12651
lowerneck -10.4566 1.56601 -0.33567
upperneck 38.5623 1.47199 1.97722
head 15.1939 0.760176 1.10228
rclavicle -4.82674e-014 -2.92213e-014
rhumerus 30.3413 -2.30041 -29.9689
rradius 109.21
rwrist -48.454
rhand -8.10098 -45.0936
rfingers 7.12502
rthumb 17.8117 -74.2979
lclavicle -4.82674e-014 -2.92213e-014
lhumerus 43.336 19.2407 13.5663
lradius 67.567
lwrist 59.1908
lhand -30.731 -35.9634
lfingers 7.12502
lthumb -4.02342 -6.02168
rfemur -36.4007 -8.65391 3.48774
rtibia 40.7397
rfoot 17.7585 -21.8244
rtoes 1.54293
lfemur -29.5436 1.70517 -25.5053
ltibia 31.4032
lfoot -15.1999 14.7931
ltoes 9.79761
267
root 4.73846 17.3034 2.57512 15.9305 -22.4246 -4.87103
lowerback -2.71895 3.28962 2.73294
upperback -5.80832 4.39145 0.345407
thorax -4.30001 2.07656 -1.20713
lowerneck -10.4693 1.47567 -0.347335
upperneck 38.5544 1.34632 1.95052
head 15.1956 0.700734 1.07353
rclavicle 6.24991e-014 1.97791e-014
rhumerus 30.3059 -2.14411 -30.1267
rradius 109.254
rwrist -48.3276
rhand -7.24974 -44.9623
rfingers 7.12502
rthumb 18.6306 -74.0902
lclavicle 6.24991e-014 1.97791e-014
lhumerus 43.5334 19.0602 13.9164
lradius 67.7645
lwrist 59.4309
lhand -30.4184 -36.9449
lfingers 7.12502
lthumb -3.72149 -6.99768
rfemur -36.9017 -8.66892 3.83914
rtibia 40.855
rfoot 17.1899 -21.931
rtoes 2.15911
lfemur -29.5223 1.90991 -25.5167
ltibia 31.5295
lfoot -15.255 14.7329
ltoes 9.66349
268
root 4.74569 17.3019 2.56606 15.8641 -22.419 -4.96651
lowerback -2.43844 3.26552 2.77242
upperback -5.7648 4.37026 0.357859
thorax -4.41166 2.06309 -1.23221
lowerneck -10.6911 1.44289 -0.285207
upperneck 38.6839 1.28179 1.93717
head 15.3152 0.679168 1.05193
rclavicle -5.79488e-014 -1.59028e-015
rhumerus 30.579 -1.78315 -30.5012
rradius 109.023
rwrist -48.0896
rhand -7.02532 -44.3906
rfingers 7.12502
rthumb 18.8465 -73.4976
lclavicle -5.79488e-014 -1.59028e-015
lhumerus 43.5526 18.9263 14.0681
lradius 67.9909
lwrist 60.0578
lhand -29.0422 -33.1255
lfingers 7.12502
lthumb -2.3925 -3.15913
rfemur -37.3879 -8.57805 4.21272
rtibia 40.9409
rfoot 16.5432 -22.4544
rtoes 3.82571
lfemur -29.5415 1.96953 -25.4342
ltibia 31.6653
lfoot -15.2615 14.6481
ltoes 9.8744
